<?xml version="1.0" standalone="no"?>
<!DOCTYPE svg PUBLIC "-//W3C//DTD SVG 20010904//EN"
 "http://www.w3.org/TR/2001/REC-SVG-20010904/DTD/svg10.dtd">
<svg version="1.0" xmlns="http://www.w3.org/2000/svg"
 width="225.000000pt" height="81.000000pt" viewBox="0 0 225.000000 81.000000"
 preserveAspectRatio="xMidYMid meet">
<metadata>
Created by potrace 1.10, written by Peter Selinger 2001-2011
</metadata>
<g transform="translate(0.000000,81.000000) scale(0.100000,-0.100000)"
fill="#000000" stroke="none">
<path d="M65 742 c-10 -22 -9 -132 0 -155 4 -9 4 -28 1 -41 -3 -14 -1 -28 4
-31 6 -4 10 -25 9 -48 -1 -23 4 -55 10 -71 12 -31 14 -45 14 -183 1 -98 8
-110 41 -74 12 13 17 32 15 60 -2 22 0 43 4 47 4 4 7 93 7 198 0 203 4 236 27
236 11 0 14 -20 12 -108 -1 -60 3 -117 8 -128 6 -10 14 -37 18 -58 10 -56 49
-129 85 -160 36 -29 75 -33 108 -10 21 14 22 14 22 -5 0 -30 28 -27 83 10 54
36 94 81 114 126 14 35 18 113 5 113 -13 0 -36 -44 -34 -66 5 -38 -34 -108
-75 -137 -74 -51 -86 -23 -24 54 22 28 42 63 46 79 3 16 13 34 21 41 18 15 18
29 -1 29 -13 0 -86 -104 -131 -185 -19 -34 -60 -42 -92 -19 -34 26 -79 107
-88 159 -3 22 -11 49 -16 59 -6 10 -10 72 -9 137 1 66 -1 119 -4 119 -25 0
-78 -35 -95 -62 -17 -28 -20 -50 -20 -147 0 -63 -2 -112 -5 -109 -10 10 -27
182 -26 259 1 58 -3 78 -13 82 -8 3 -18 -2 -21 -11z"/>
<path d="M906 655 c-9 -14 -14 -30 -11 -36 6 -9 -37 -127 -56 -154 -4 -5 -30
-55 -59 -110 -29 -55 -64 -112 -78 -127 -41 -44 -17 -44 32 -1 74 65 167 124
226 144 82 27 86 24 40 -31 -33 -39 -50 -51 -80 -56 -64 -10 -148 -69 -128
-90 12 -12 89 8 116 30 34 28 51 33 180 51 103 14 147 32 200 78 25 23 29 12
8 -18 -23 -33 -106 -193 -106 -205 0 -5 5 -10 11 -10 18 0 107 62 179 125 36
31 95 72 133 91 l67 34 0 -25 c0 -37 -29 -104 -68 -158 -19 -26 -32 -51 -28
-54 3 -3 31 16 62 43 109 94 123 104 186 137 65 34 187 81 193 75 2 -2 -18
-48 -45 -103 -66 -137 -83 -181 -76 -194 13 -21 123 -13 174 13 99 49 112 58
142 95 28 36 41 91 22 91 -17 0 -42 -37 -37 -52 15 -38 -132 -118 -216 -118
-28 0 -49 3 -47 8 2 4 10 21 17 37 8 17 36 76 62 132 65 136 64 164 -5 128
-15 -8 -33 -15 -40 -15 -22 0 -210 -101 -252 -136 -50 -40 -52 -39 -24 13 25
46 27 123 4 123 -30 0 -140 -66 -219 -131 -44 -36 -97 -78 -118 -94 l-37 -28
28 54 c16 30 43 77 60 104 17 28 32 61 32 74 0 20 -3 22 -27 17 -14 -4 -45
-23 -69 -42 -38 -31 -52 -36 -141 -48 -55 -7 -106 -16 -113 -21 -8 -5 7 17 33
49 54 67 59 86 20 86 -51 0 -210 -70 -228 -101 -4 -5 -15 -13 -25 -19 -15 -8
-10 6 19 57 69 122 121 241 121 278 0 41 -11 45 -34 10z"/>
<path d="M1472 639 c-24 -11 -69 -25 -100 -31 -83 -14 -105 -22 -110 -35 -5
-18 56 -17 130 3 76 19 138 53 138 76 0 12 -10 10 -58 -13z"/>
</g>
</svg>
